<svg xmlns="http://www.w3.org/2000/svg" xmlns:xlink="http://www.w3.org/1999/xlink" width="146" height="152" viewBox="0 0 146 152">
  <defs>
    <clipPath id="clip-Fondo_Patron">
      <rect width="146" height="152"/>
    </clipPath>
  </defs>
  <g id="Fondo_Patron" data-name="Fondo Patron" clip-path="url(#clip-Fondo_Patron)">
    <g id="Componente_3_1" data-name="Componente 3 – 1" transform="translate(2.845 1.705)" opacity="0.09">
      <g id="Grupo_11197" data-name="Grupo 11197" transform="translate(78.973 111.453)">
        <path id="Trazado_8718" data-name="Trazado 8718" d="M0,0H24V24H0Z" fill="none"/>
        <path id="Trazado_8719" data-name="Trazado 8719" d="M5.455,15,1,18.5V3A1,1,0,0,1,2,2H17a1,1,0,0,1,1,1V15Zm-.692-2H16V4H3V14.385ZM8,17H18.237L20,18.385V8h1a1,1,0,0,1,1,1V22.5L17.545,19H9a1,1,0,0,1-1-1Z"/>
      </g>
      <g id="Grupo_11205" data-name="Grupo 11205" transform="translate(5.188 61.17)">
        <path id="Trazado_8718-2" data-name="Trazado 8718" d="M0,0H18.192V18.192H0Z" fill="none"/>
        <path id="Trazado_8719-2" data-name="Trazado 8719" d="M4.377,11.854,1,14.507V2.758A.758.758,0,0,1,1.758,2h11.37a.758.758,0,0,1,.758.758v9.1Zm-.525-1.516H12.37V3.516H2.516v7.872ZM6.306,13.37h7.76L15.4,14.42V6.548h.758a.758.758,0,0,1,.758.758V17.539l-3.377-2.653H7.064a.758.758,0,0,1-.758-.758Z" transform="translate(-0.242 -0.484)"/>
      </g>
      <g id="Grupo_11198" data-name="Grupo 11198" transform="translate(54.885 77.362)">
        <path id="Trazado_8720" data-name="Trazado 8720" d="M25.078,13.125A1.209,1.209,0,0,0,24,12.392V8.948a2.318,2.318,0,0,0-2.316-2.316H14.739V5.022a1.737,1.737,0,1,0-2.316,0v1.61H5.476A2.318,2.318,0,0,0,3.16,8.948v3.47l-.095.007A1.158,1.158,0,0,0,1.99,13.58V15.9a1.158,1.158,0,0,0,1.158,1.158H3.16v5.79A2.318,2.318,0,0,0,5.476,25.16H21.687A2.318,2.318,0,0,0,24,22.844v-5.79A1.158,1.158,0,0,0,25.161,15.9V13.652A1.165,1.165,0,0,0,25.078,13.125Zm-19.6,9.719V8.948H21.687v13.9Z" transform="translate(0 0)"/>
        <ellipse id="Elipse_153" data-name="Elipse 153" cx="1.5" cy="2.5" rx="1.5" ry="2.5" transform="translate(8.088 11.091)"/>
        <ellipse id="Elipse_154" data-name="Elipse 154" cx="1.5" cy="2.5" rx="1.5" ry="2.5" transform="translate(16.088 11.091)"/>
        <path id="Trazado_8721" data-name="Trazado 8721" d="M8,16h9.264v2.316H8Z" transform="translate(0.949 2.212)"/>
      </g>
      <g id="_1" data-name="1" transform="translate(112.133 6.63)">
        <path id="Trazado_8722" data-name="Trazado 8722" d="M66.546,69a.784.784,0,0,1-.7-.441l-3.684-7.574L54.583,57.3a.784.784,0,0,1,.052-1.432l19.437-7.818a.784.784,0,0,1,1.02,1.02L67.273,68.507a.784.784,0,0,1-.7.491ZM56.858,56.665,63.086,59.7a.784.784,0,0,1,.362.362l3.031,6.229,6.469-16.1Z" transform="translate(-54.142 -47.992)"/>
        <path id="Trazado_8723" data-name="Trazado 8723" d="M204.507,61.187a.784.784,0,0,1-.554-1.338l11.62-11.62a.784.784,0,0,1,1.108,1.109L205.061,60.96A.784.784,0,0,1,204.507,61.187Z" transform="translate(-195.906 -47.998)"/>
      </g>
      <g id="_1-2" data-name="1" transform="translate(4.967 88.515)">
        <path id="Trazado_8722-2" data-name="Trazado 8722" d="M66.546,69a.784.784,0,0,1-.7-.441l-3.684-7.574L54.583,57.3a.784.784,0,0,1,.052-1.432l19.437-7.818a.784.784,0,0,1,1.02,1.02L67.273,68.507a.784.784,0,0,1-.7.491ZM56.858,56.665,63.086,59.7a.784.784,0,0,1,.362.362l3.031,6.229,6.469-16.1Z" transform="translate(-54.142 -47.992)"/>
        <path id="Trazado_8723-2" data-name="Trazado 8723" d="M204.507,61.187a.784.784,0,0,1-.554-1.338l11.62-11.62a.784.784,0,0,1,1.108,1.109L205.061,60.96A.784.784,0,0,1,204.507,61.187Z" transform="translate(-195.906 -47.998)"/>
      </g>
      <g id="_1-3" data-name="1" transform="translate(39.009 111.902)">
        <path id="Trazado_8724" data-name="Trazado 8724" d="M73.225,81.037H69.892a.9.9,0,0,1,0-1.793h3.334a4.192,4.192,0,1,0,0-8.385c-.113,0-.233.006-.367.018a.9.9,0,0,1-.852-.444,5.869,5.869,0,0,0-10.861,1.949.9.9,0,0,1-.918.745h-.063a3.059,3.059,0,1,0,0,6.118H64.63a.9.9,0,1,1,0,1.793H60.164a4.853,4.853,0,0,1-.631-9.665,7.662,7.662,0,0,1,13.73-2.307,5.985,5.985,0,1,1-.038,11.971Z" transform="translate(-55.315 -65.716)"/>
        <path id="Trazado_8725" data-name="Trazado 8725" d="M195.731,351.493a.9.9,0,0,1-.634-.263l-2.88-2.88a.9.9,0,1,1,1.268-1.269l2.246,2.247,2.247-2.247a.9.9,0,1,1,1.268,1.269l-2.88,2.88A.9.9,0,0,1,195.731,351.493Z" transform="translate(-183.785 -330.014)"/>
        <path id="Trazado_8726" data-name="Trazado 8726" d="M241.027,241.883a.9.9,0,0,1-.9-.9v-9.85a.9.9,0,1,1,1.793,0v9.85A.9.9,0,0,1,241.027,241.883Z" transform="translate(-229.081 -220.404)"/>
      </g>
      <g id="Grupo_11199" data-name="Grupo 11199" transform="translate(107.986 37.514)">
        <path id="Trazado_8727" data-name="Trazado 8727" d="M21.105,4.277C17.356,2.113,12.164,2.448,10,6.2l5,2.886m6.107-4.805C24.854,6.442,27.16,11.105,25,14.854l-7.5-4.329m3.607-6.248.721-1.25m-.721,1.25c-2.628.7-4.3,1.681-6.107,4.805m6.107-4.805c.7,2.628.7,4.567-1.108,7.691m-2.5-1.443L15,9.082m2.5,1.443-4.329,7.5" transform="translate(3.101)" fill="none" stroke="#000" stroke-linecap="round" stroke-linejoin="round" stroke-width="2"/>
        <path id="Trazado_8728" data-name="Trazado 8728" d="M3,21.815l1.269-1.523a2.888,2.888,0,0,1,4.529.116h0a2.888,2.888,0,0,0,4.484.169l.276-.315a3.227,3.227,0,0,1,4.857,0l.276.315a2.888,2.888,0,0,0,4.484-.169h0a2.888,2.888,0,0,1,4.529-.116l1.27,1.523" transform="translate(0 7.186)" fill="none" stroke="#000" stroke-linecap="round" stroke-linejoin="round" stroke-width="2"/>
        <path id="Trazado_8729" data-name="Trazado 8729" d="M6.708,16.886a11.544,11.544,0,0,1,15.271,0" transform="translate(1.643 4.9)" fill="none" stroke="#000" stroke-linecap="round" stroke-linejoin="round" stroke-width="2"/>
      </g>
      <g id="Grupo_11204" data-name="Grupo 11204" transform="translate(-3 118.254)">
        <path id="Trazado_8727-2" data-name="Trazado 8727" d="M21.105,4.277C17.356,2.113,12.164,2.448,10,6.2l5,2.886m6.107-4.805C24.854,6.442,27.16,11.105,25,14.854l-7.5-4.329m3.607-6.248.721-1.25m-.721,1.25c-2.628.7-4.3,1.681-6.107,4.805m6.107-4.805c.7,2.628.7,4.567-1.108,7.691m-2.5-1.443L15,9.082m2.5,1.443-4.329,7.5" transform="translate(3.101)" fill="none" stroke="#000" stroke-linecap="round" stroke-linejoin="round" stroke-width="2"/>
        <path id="Trazado_8728-2" data-name="Trazado 8728" d="M3,21.815l1.269-1.523a2.888,2.888,0,0,1,4.529.116h0a2.888,2.888,0,0,0,4.484.169l.276-.315a3.227,3.227,0,0,1,4.857,0l.276.315a2.888,2.888,0,0,0,4.484-.169h0a2.888,2.888,0,0,1,4.529-.116l1.27,1.523" transform="translate(0 7.186)" fill="none" stroke="#000" stroke-linecap="round" stroke-linejoin="round" stroke-width="2"/>
        <path id="Trazado_8729-2" data-name="Trazado 8729" d="M6.708,16.886a11.544,11.544,0,0,1,15.271,0" transform="translate(1.643 4.9)" fill="none" stroke="#000" stroke-linecap="round" stroke-linejoin="round" stroke-width="2"/>
      </g>
      <g id="Dibujo" transform="translate(27.513 3.899) rotate(14)">
        <path id="Trazado_8730" data-name="Trazado 8730" d="M52.53,39.964a1.238,1.238,0,0,0-.013-.128c-.005-.034-.009-.067-.017-.1a1.056,1.056,0,0,0-.033-.1,1.124,1.124,0,0,0-.043-.113c-.005-.011-.007-.022-.012-.033s-.026-.039-.037-.059a1.145,1.145,0,0,0-.063-.1,1.078,1.078,0,0,0-.072-.088.991.991,0,0,0-.072-.075.968.968,0,0,0-.092-.076c-.027-.021-.054-.04-.083-.058s-.067-.038-.1-.056-.062-.03-.095-.042-.075-.025-.114-.036-.064-.017-.1-.022a1.113,1.113,0,0,0-.131-.013c-.022,0-.042-.005-.063-.005H49.109A2.857,2.857,0,0,0,46.254,36H38.263a2.841,2.841,0,0,0-2.061.884,2.752,2.752,0,0,0-.418.6,3.546,3.546,0,0,0-3.033,0,2.772,2.772,0,0,0-.418-.6A2.843,2.843,0,0,0,30.271,36H22.28a2.857,2.857,0,0,0-2.854,2.854H17.142c-.022,0-.043.006-.066.007-.042,0-.083.006-.124.012a1.055,1.055,0,0,0-.106.025.935.935,0,0,0-.105.033c-.036.013-.069.029-.1.045s-.064.033-.1.052-.06.041-.089.062-.059.046-.086.071a1.087,1.087,0,0,0-.075.079c-.025.028-.049.055-.07.085a.981.981,0,0,0-.064.1c-.012.02-.027.038-.038.059s-.007.022-.012.033a1.121,1.121,0,0,0-.043.113c-.012.034-.024.069-.033.1a1.028,1.028,0,0,0-.017.1.944.944,0,0,0-.013.126A.271.271,0,0,0,16,40c0,.022.006.043.007.066,0,.042.006.083.012.124s.015.07.025.106a.936.936,0,0,0,.033.105,1.089,1.089,0,0,0,.045.1c.016.033.033.064.052.1s.04.059.062.088.046.059.072.087a.98.98,0,0,0,.079.075c.027.025.055.049.085.07a1.094,1.094,0,0,0,.1.065c.02.011.038.026.059.037l2.8,1.4A6.283,6.283,0,0,0,25.7,48.558c2.847,0,6.273-1.4,7.184-7.746a.8.8,0,0,0,.012-.09c.018-.128.037-.253.053-.386a1.4,1.4,0,0,1,2.628,0c.015.132.035.257.053.386,0,.03.006.061.012.09.911,6.343,4.337,7.746,7.184,7.746A6.283,6.283,0,0,0,49.1,42.417l2.8-1.4c.021-.011.038-.026.059-.038a1.155,1.155,0,0,0,.1-.063.959.959,0,0,0,.086-.072c.027-.023.053-.047.077-.073a1.112,1.112,0,0,0,.074-.09c.021-.027.041-.055.059-.084s.037-.066.054-.1a.932.932,0,0,0,.043-.1,1.058,1.058,0,0,0,.034-.11,1.01,1.01,0,0,0,.023-.1.943.943,0,0,0,.013-.127c0-.022.006-.042.006-.064S52.531,39.975,52.53,39.964Zm-26.019.268-2.854,2.854a1.142,1.142,0,0,1-1.614-1.614L24.9,38.618a1.142,1.142,0,0,1,1.614,1.614Zm16.554,0-2.854,2.854A1.142,1.142,0,0,1,38.6,41.472l2.854-2.854a1.142,1.142,0,0,1,1.614,1.614Z"/>
      </g>
      <path id="Trazado_8731" data-name="Trazado 8731" d="M8.306,6.856a.4.4,0,0,1,.753,0l.708,2.126a3.172,3.172,0,0,0,2.007,2.006L13.9,11.7a.4.4,0,0,1,0,.753l-2.126.708a3.172,3.172,0,0,0-2.006,2.007l-.708,2.125a.4.4,0,0,1-.753,0L7.6,15.162a3.172,3.172,0,0,0-2.006-2.006l-2.126-.708a.4.4,0,0,1,0-.753l2.126-.708A3.172,3.172,0,0,0,7.6,8.981l.708-2.126ZM4.066,1.26a.238.238,0,0,1,.452,0l.425,1.275a1.9,1.9,0,0,0,1.2,1.2l1.275.425a.238.238,0,0,1,0,.452L6.147,5.04a1.9,1.9,0,0,0-1.2,1.2L4.518,7.52a.238.238,0,0,1-.452,0L3.642,6.244a1.9,1.9,0,0,0-1.2-1.2L1.162,4.616a.238.238,0,0,1,0-.452l1.275-.425a1.9,1.9,0,0,0,1.2-1.2L4.066,1.26ZM11.824.109a.159.159,0,0,1,.3,0l.283.849a1.267,1.267,0,0,0,.8.8l.849.283a.159.159,0,0,1,0,.3l-.849.283a1.269,1.269,0,0,0-.8.8l-.283.849a.159.159,0,0,1-.3,0l-.283-.849a1.269,1.269,0,0,0-.8-.8l-.848-.283a.159.159,0,0,1,0-.3l.849-.283a1.267,1.267,0,0,0,.8-.8L11.824.11Z" transform="translate(33.609 69.503)"/>
      <path id="Trazado_8741" data-name="Trazado 8741" d="M8.192,8.409a.487.487,0,0,0-.923,0L6.4,11.016a3.89,3.89,0,0,1-2.462,2.461l-2.606.868a.487.487,0,0,0,0,.923l2.607.868A3.89,3.89,0,0,1,6.4,18.6l.868,2.606a.486.486,0,0,0,.923,0L9.061,18.6a3.89,3.89,0,0,1,2.461-2.461l2.607-.868a.486.486,0,0,0,0-.923l-2.607-.868a3.89,3.89,0,0,1-2.461-2.461L8.192,8.409Zm5.2-6.864a.292.292,0,0,0-.555,0l-.521,1.564A2.337,2.337,0,0,1,10.84,4.586l-1.564.521a.292.292,0,0,0,0,.555l1.564.521a2.334,2.334,0,0,1,1.477,1.477l.521,1.564a.292.292,0,0,0,.555,0l.521-1.564A2.334,2.334,0,0,1,15.39,6.182l1.564-.521a.292.292,0,0,0,0-.555L15.39,4.586a2.334,2.334,0,0,1-1.477-1.477ZM3.877.133a.2.2,0,0,0-.369,0L3.16,1.175a1.554,1.554,0,0,1-.985.985l-1.042.347a.2.2,0,0,0,0,.369l1.042.347a1.556,1.556,0,0,1,.985.985l.347,1.042a.2.2,0,0,0,.369,0l.347-1.042a1.556,1.556,0,0,1,.985-.985L6.25,2.876a.2.2,0,0,0,0-.369L5.208,2.16a1.554,1.554,0,0,1-.985-.985L3.877.134Z" transform="translate(90.897 75.513)"/>
      <path id="Trazado_8746" data-name="Trazado 8746" d="M6.707,6.673a.386.386,0,0,0-.733,0L5.285,8.742a3.087,3.087,0,0,1-1.954,1.953l-2.068.689a.386.386,0,0,0,0,.733l2.069.689a3.087,3.087,0,0,1,1.953,1.954l.689,2.068a.386.386,0,0,0,.733,0L7.4,14.758a3.087,3.087,0,0,1,1.953-1.953l2.069-.689a.386.386,0,0,0,0-.733l-2.069-.689A3.087,3.087,0,0,1,7.4,8.742L6.707,6.673Zm4.126-5.447a.232.232,0,0,0-.44,0L9.98,2.467A1.854,1.854,0,0,1,8.808,3.639l-1.241.413a.232.232,0,0,0,0,.44l1.241.413A1.852,1.852,0,0,1,9.98,6.078l.413,1.241a.232.232,0,0,0,.44,0l.413-1.241a1.852,1.852,0,0,1,1.172-1.172l1.241-.413a.232.232,0,0,0,0-.44l-1.241-.413a1.852,1.852,0,0,1-1.172-1.172ZM3.283.106a.155.155,0,0,0-.293,0L2.714.932a1.233,1.233,0,0,1-.782.782l-.827.276a.155.155,0,0,0,0,.293l.827.276a1.235,1.235,0,0,1,.782.782l.276.827a.155.155,0,0,0,.293,0l.276-.827a1.235,1.235,0,0,1,.782-.782l.826-.276a.155.155,0,0,0,0-.293l-.827-.276A1.233,1.233,0,0,1,3.557.932L3.283.107Z" transform="matrix(0.985, -0.174, 0.174, 0.985, 20.147, 3.93)"/>
      <path id="Trazado_8747" data-name="Trazado 8747" d="M6.707,6.673a.386.386,0,0,0-.733,0L5.285,8.742a3.087,3.087,0,0,1-1.954,1.953l-2.068.689a.386.386,0,0,0,0,.733l2.069.689a3.087,3.087,0,0,1,1.953,1.954l.689,2.068a.386.386,0,0,0,.733,0L7.4,14.758a3.087,3.087,0,0,1,1.953-1.953l2.069-.689a.386.386,0,0,0,0-.733l-2.069-.689A3.087,3.087,0,0,1,7.4,8.742L6.707,6.673Zm4.126-5.447a.232.232,0,0,0-.44,0L9.98,2.467A1.854,1.854,0,0,1,8.808,3.639l-1.241.413a.232.232,0,0,0,0,.44l1.241.413A1.852,1.852,0,0,1,9.98,6.078l.413,1.241a.232.232,0,0,0,.44,0l.413-1.241a1.852,1.852,0,0,1,1.172-1.172l1.241-.413a.232.232,0,0,0,0-.44l-1.241-.413a1.852,1.852,0,0,1-1.172-1.172ZM3.283.106a.155.155,0,0,0-.293,0L2.714.932a1.233,1.233,0,0,1-.782.782l-.827.276a.155.155,0,0,0,0,.293l.827.276a1.235,1.235,0,0,1,.782.782l.276.827a.155.155,0,0,0,.293,0l.276-.827a1.235,1.235,0,0,1,.782-.782l.826-.276a.155.155,0,0,0,0-.293l-.827-.276A1.233,1.233,0,0,1,3.557.932L3.283.107Z" transform="matrix(0.985, -0.174, 0.174, 0.985, 61.67, 131.93)"/>
      <path id="Trazado_8742" data-name="Trazado 8742" d="M4.373.155a.229.229,0,0,0-.433,0L3.533,1.377A1.823,1.823,0,0,1,2.378,2.533L1.156,2.94a.229.229,0,0,0,0,.433l1.222.407A1.825,1.825,0,0,1,3.533,4.936l.407,1.222a.229.229,0,0,0,.433,0L4.78,4.936A1.825,1.825,0,0,1,5.936,3.78l1.22-.407a.229.229,0,0,0,0-.433L5.934,2.533A1.823,1.823,0,0,1,4.779,1.377L4.373.157Z" transform="translate(62.377 35.513)"/>
      <path id="Trazado_8744" data-name="Trazado 8744" d="M4.373.155a.229.229,0,0,0-.433,0L3.533,1.377A1.823,1.823,0,0,1,2.378,2.533L1.156,2.94a.229.229,0,0,0,0,.433l1.222.407A1.825,1.825,0,0,1,3.533,4.936l.407,1.222a.229.229,0,0,0,.433,0L4.78,4.936A1.825,1.825,0,0,1,5.936,3.78l1.22-.407a.229.229,0,0,0,0-.433L5.934,2.533A1.823,1.823,0,0,1,4.779,1.377L4.373.157Z" transform="translate(98.817 30.037)"/>
      <path id="Trazado_8762" data-name="Trazado 8762" d="M5.967.228a.337.337,0,0,0-.637,0l-.6,1.8a2.685,2.685,0,0,1-1.7,1.7l-1.8.6a.337.337,0,0,0,0,.637l1.8.6a2.688,2.688,0,0,1,1.7,1.7l.6,1.8a.337.337,0,0,0,.637,0l.6-1.8a2.688,2.688,0,0,1,1.7-1.7l1.8-.6a.337.337,0,0,0,0-.637l-1.8-.6a2.685,2.685,0,0,1-1.7-1.7l-.6-1.8Z" transform="translate(130.017 119.699)"/>
      <path id="Trazado_8751" data-name="Trazado 8751" d="M4.373.155a.229.229,0,0,0-.433,0L3.533,1.377A1.823,1.823,0,0,1,2.378,2.533L1.156,2.94a.229.229,0,0,0,0,.433l1.222.407A1.825,1.825,0,0,1,3.533,4.936l.407,1.222a.229.229,0,0,0,.433,0L4.78,4.936A1.825,1.825,0,0,1,5.936,3.78l1.22-.407a.229.229,0,0,0,0-.433L5.934,2.533A1.823,1.823,0,0,1,4.779,1.377L4.373.157Z" transform="translate(118.986 79.328)"/>
      <path id="Trazado_8764" data-name="Trazado 8764" d="M4.373.155a.229.229,0,0,0-.433,0L3.533,1.377A1.823,1.823,0,0,1,2.378,2.533L1.156,2.94a.229.229,0,0,0,0,.433l1.222.407A1.825,1.825,0,0,1,3.533,4.936l.407,1.222a.229.229,0,0,0,.433,0L4.78,4.936A1.825,1.825,0,0,1,5.936,3.78l1.22-.407a.229.229,0,0,0,0-.433L5.934,2.533A1.823,1.823,0,0,1,4.779,1.377L4.373.157Z" transform="translate(108.376 119.485)"/>
      <path id="Trazado_8756" data-name="Trazado 8756" d="M4.373.155a.229.229,0,0,0-.433,0L3.533,1.377A1.823,1.823,0,0,1,2.378,2.533L1.156,2.94a.229.229,0,0,0,0,.433l1.222.407A1.825,1.825,0,0,1,3.533,4.936l.407,1.222a.229.229,0,0,0,.433,0L4.78,4.936A1.825,1.825,0,0,1,5.936,3.78l1.22-.407a.229.229,0,0,0,0-.433L5.934,2.533A1.823,1.823,0,0,1,4.779,1.377L4.373.157Z" transform="translate(8.16 50.483)"/>
      <path id="Trazado_8749" data-name="Trazado 8749" d="M4.373.155a.229.229,0,0,0-.433,0L3.533,1.377A1.823,1.823,0,0,1,2.378,2.533L1.156,2.94a.229.229,0,0,0,0,.433l1.222.407A1.825,1.825,0,0,1,3.533,4.936l.407,1.222a.229.229,0,0,0,.433,0L4.78,4.936A1.825,1.825,0,0,1,5.936,3.78l1.22-.407a.229.229,0,0,0,0-.433L5.934,2.533A1.823,1.823,0,0,1,4.779,1.377L4.373.157Z" transform="translate(41.623 96.998)"/>
      <path id="Trazado_8743" data-name="Trazado 8743" d="M3.405.111a.163.163,0,0,0-.308,0l-.29.871a1.3,1.3,0,0,1-.824.824l-.871.29a.163.163,0,0,0,0,.308l.871.29a1.3,1.3,0,0,1,.824.824l.29.871a.163.163,0,0,0,.308,0l.29-.871A1.3,1.3,0,0,1,4.519,2.7l.87-.29a.163.163,0,0,0,0-.308l-.871-.29A1.3,1.3,0,0,1,3.694.982L3.405.112Z" transform="translate(69.971 32.838)"/>
      <path id="Trazado_8757" data-name="Trazado 8757" d="M3.405.111a.163.163,0,0,0-.308,0l-.29.871a1.3,1.3,0,0,1-.824.824l-.871.29a.163.163,0,0,0,0,.308l.871.29a1.3,1.3,0,0,1,.824.824l.29.871a.163.163,0,0,0,.308,0l.29-.871A1.3,1.3,0,0,1,4.519,2.7l.87-.29a.163.163,0,0,0,0-.308l-.871-.29A1.3,1.3,0,0,1,3.694.982L3.405.112Z" transform="translate(20.129 54.895)"/>
      <path id="Trazado_8745" data-name="Trazado 8745" d="M3.405.111a.163.163,0,0,0-.308,0l-.29.871a1.3,1.3,0,0,1-.824.824l-.871.29a.163.163,0,0,0,0,.308l.871.29a1.3,1.3,0,0,1,.824.824l.29.871a.163.163,0,0,0,.308,0l.29-.871A1.3,1.3,0,0,1,4.519,2.7l.87-.29a.163.163,0,0,0,0-.308l-.871-.29A1.3,1.3,0,0,1,3.694.982L3.405.112Z" transform="translate(105.487 38.201)"/>
      <path id="Trazado_8755" data-name="Trazado 8755" d="M3.405.111a.163.163,0,0,0-.308,0l-.29.871a1.3,1.3,0,0,1-.824.824l-.871.29a.163.163,0,0,0,0,.308l.871.29a1.3,1.3,0,0,1,.824.824l.29.871a.163.163,0,0,0,.308,0l.29-.871A1.3,1.3,0,0,1,4.519,2.7l.87-.29a.163.163,0,0,0,0-.308l-.871-.29A1.3,1.3,0,0,1,3.694.982L3.405.112Z" transform="translate(109.984 -0.001)"/>
      <path id="Trazado_8754" data-name="Trazado 8754" d="M3.405.111a.163.163,0,0,0-.308,0l-.29.871a1.3,1.3,0,0,1-.824.824l-.871.29a.163.163,0,0,0,0,.308l.871.29a1.3,1.3,0,0,1,.824.824l.29.871a.163.163,0,0,0,.308,0l.29-.871A1.3,1.3,0,0,1,4.519,2.7l.87-.29a.163.163,0,0,0,0-.308l-.871-.29A1.3,1.3,0,0,1,3.694.982L3.405.112Z" transform="translate(129.474 28.694)"/>
      <path id="Trazado_8766" data-name="Trazado 8766" d="M3.405.111a.163.163,0,0,0-.308,0l-.29.871a1.3,1.3,0,0,1-.824.824l-.871.29a.163.163,0,0,0,0,.308l.871.29a1.3,1.3,0,0,1,.824.824l.29.871a.163.163,0,0,0,.308,0l.29-.871A1.3,1.3,0,0,1,4.519,2.7l.87-.29a.163.163,0,0,0,0-.308l-.871-.29A1.3,1.3,0,0,1,3.694.982L3.405.112Z" transform="translate(131.731 76.033)"/>
      <path id="Trazado_8765" data-name="Trazado 8765" d="M3.405.111a.163.163,0,0,0-.308,0l-.29.871a1.3,1.3,0,0,1-.824.824l-.871.29a.163.163,0,0,0,0,.308l.871.29a1.3,1.3,0,0,1,.824.824l.29.871a.163.163,0,0,0,.308,0l.29-.871A1.3,1.3,0,0,1,4.519,2.7l.87-.29a.163.163,0,0,0,0-.308l-.871-.29A1.3,1.3,0,0,1,3.694.982L3.405.112Z" transform="translate(3.318 8.81)"/>
      <path id="Trazado_8758" data-name="Trazado 8758" d="M3.405.111a.163.163,0,0,0-.308,0l-.29.871a1.3,1.3,0,0,1-.824.824l-.871.29a.163.163,0,0,0,0,.308l.871.29a1.3,1.3,0,0,1,.824.824l.29.871a.163.163,0,0,0,.308,0l.29-.871A1.3,1.3,0,0,1,4.519,2.7l.87-.29a.163.163,0,0,0,0-.308l-.871-.29A1.3,1.3,0,0,1,3.694.982L3.405.112Z" transform="translate(83.611 102.772)"/>
      <path id="Trazado_8759" data-name="Trazado 8759" d="M3.405.111a.163.163,0,0,0-.308,0l-.29.871a1.3,1.3,0,0,1-.824.824l-.871.29a.163.163,0,0,0,0,.308l.871.29a1.3,1.3,0,0,1,.824.824l.29.871a.163.163,0,0,0,.308,0l.29-.871A1.3,1.3,0,0,1,4.519,2.7l.87-.29a.163.163,0,0,0,0-.308l-.871-.29A1.3,1.3,0,0,1,3.694.982L3.405.112Z" transform="translate(3.965 86.008)"/>
      <path id="Trazado_8753" data-name="Trazado 8753" d="M3.405.111a.163.163,0,0,0-.308,0l-.29.871a1.3,1.3,0,0,1-.824.824l-.871.29a.163.163,0,0,0,0,.308l.871.29a1.3,1.3,0,0,1,.824.824l.29.871a.163.163,0,0,0,.308,0l.29-.871A1.3,1.3,0,0,1,4.519,2.7l.87-.29a.163.163,0,0,0,0-.308l-.871-.29A1.3,1.3,0,0,1,3.694.982L3.405.112Z" transform="translate(57.88 2.248)"/>
      <path id="Trazado_8752" data-name="Trazado 8752" d="M3.405.111a.163.163,0,0,0-.308,0l-.29.871a1.3,1.3,0,0,1-.824.824l-.871.29a.163.163,0,0,0,0,.308l.871.29a1.3,1.3,0,0,1,.824.824l.29.871a.163.163,0,0,0,.308,0l.29-.871A1.3,1.3,0,0,1,4.519,2.7l.87-.29a.163.163,0,0,0,0-.308l-.871-.29A1.3,1.3,0,0,1,3.694.982L3.405.112Z" transform="translate(72.22 68.015)"/>
      <path id="Trazado_8750" data-name="Trazado 8750" d="M3.405.111a.163.163,0,0,0-.308,0l-.29.871a1.3,1.3,0,0,1-.824.824l-.871.29a.163.163,0,0,0,0,.308l.871.29a1.3,1.3,0,0,1,.824.824l.29.871a.163.163,0,0,0,.308,0l.29-.871A1.3,1.3,0,0,1,4.519,2.7l.87-.29a.163.163,0,0,0,0-.308l-.871-.29A1.3,1.3,0,0,1,3.694.982L3.405.112Z" transform="translate(102.876 106.953)"/>
      <path id="Trazado_8763" data-name="Trazado 8763" d="M3.405.111a.163.163,0,0,0-.308,0l-.29.871a1.3,1.3,0,0,1-.824.824l-.871.29a.163.163,0,0,0,0,.308l.871.29a1.3,1.3,0,0,1,.824.824l.29.871a.163.163,0,0,0,.308,0l.29-.871A1.3,1.3,0,0,1,4.519,2.7l.87-.29a.163.163,0,0,0,0-.308l-.871-.29A1.3,1.3,0,0,1,3.694.982L3.405.112Z" transform="translate(90.894 139.059)"/>
      <path id="Trazado_8748" data-name="Trazado 8748" d="M3.405.111a.163.163,0,0,0-.308,0l-.29.871a1.3,1.3,0,0,1-.824.824l-.871.29a.163.163,0,0,0,0,.308l.871.29a1.3,1.3,0,0,1,.824.824l.29.871a.163.163,0,0,0,.308,0l.29-.871A1.3,1.3,0,0,1,4.519,2.7l.87-.29a.163.163,0,0,0,0-.308l-.871-.29A1.3,1.3,0,0,1,3.694.982L3.405.112Z" transform="translate(29.694 107.27)"/>
      <path id="Trazado_8761" data-name="Trazado 8761" d="M3.405.111a.163.163,0,0,0-.308,0l-.29.871a1.3,1.3,0,0,1-.824.824l-.871.29a.163.163,0,0,0,0,.308l.871.29a1.3,1.3,0,0,1,.824.824l.29.871a.163.163,0,0,0,.308,0l.29-.871A1.3,1.3,0,0,1,4.519,2.7l.87-.29a.163.163,0,0,0,0-.308l-.871-.29A1.3,1.3,0,0,1,3.694.982L3.405.112Z" transform="translate(34.191 136.81)"/>
      <path id="Trazado_8760" data-name="Trazado 8760" d="M3.405.111a.163.163,0,0,0-.308,0l-.29.871a1.3,1.3,0,0,1-.824.824l-.871.29a.163.163,0,0,0,0,.308l.871.29a1.3,1.3,0,0,1,.824.824l.29.871a.163.163,0,0,0,.308,0l.29-.871A1.3,1.3,0,0,1,4.519,2.7l.87-.29a.163.163,0,0,0,0-.308l-.871-.29A1.3,1.3,0,0,1,3.694.982L3.405.112Z" transform="translate(1.716 113.425)"/>
      <path id="Trazado_8732" data-name="Trazado 8732" d="M21.22,68.753H18.679l-.706-1.765A4.729,4.729,0,0,0,13.561,64H8.172a4.73,4.73,0,0,0-4.413,2.987l-.706,1.765H.513a.509.509,0,0,0-.494.633L.274,70.4a.509.509,0,0,0,.494.386h.852a2.7,2.7,0,0,0-.937,2.037v2.037a2.694,2.694,0,0,0,.679,1.779v2.294a1.358,1.358,0,0,0,1.358,1.358H4.077a1.358,1.358,0,0,0,1.358-1.358V77.579H16.3v1.358a1.358,1.358,0,0,0,1.358,1.358h1.358a1.358,1.358,0,0,0,1.358-1.358V76.642a2.692,2.692,0,0,0,.679-1.779V72.826a2.7,2.7,0,0,0-.937-2.037h.852a.509.509,0,0,0,.494-.386l.255-1.018A.509.509,0,0,0,21.22,68.753ZM6.281,68a2.037,2.037,0,0,1,1.891-1.28h5.389A2.037,2.037,0,0,1,15.452,68L16.3,70.11H5.435Zm-2.2,6.859a1.354,1.354,0,1,1,0-2.707,2.612,2.612,0,0,1,2.037,2.03c0,.812-1.222.677-2.037.677Zm13.579,0c-.815,0-2.037.135-2.037-.677a2.612,2.612,0,0,1,2.037-2.03,1.354,1.354,0,1,1,0,2.707Z" transform="translate(78.244 -17.251)" fill="none" stroke="#000" stroke-width="1.5"/>
      <g id="_x30_1" transform="translate(73.084 -2)">
        <g id="Grupo_11200" data-name="Grupo 11200" transform="translate(2 2)">
          <path id="Trazado_8733" data-name="Trazado 8733" d="M24.591,12.877a.836.836,0,0,0-.837.837A10.038,10.038,0,1,1,22.21,8.362a.837.837,0,0,0,1.415-.894,11.716,11.716,0,1,0,1.8,6.246A.837.837,0,0,0,24.591,12.877Z" transform="translate(-2 -2)"/>
          <path id="Trazado_8734" data-name="Trazado 8734" d="M5,15.53a.836.836,0,0,0,.837.837h.937c2.043,3.77,6.77,6.447,7.024,6.588a.837.837,0,0,0,.813,0c.254-.141,4.981-2.818,7.024-6.588h.937a.837.837,0,0,0,0-1.673H22.32a6.23,6.23,0,0,0,.251-1.673A5.021,5.021,0,0,0,14.2,9.277,5.021,5.021,0,0,0,5.837,13.02a6.228,6.228,0,0,0,.251,1.673H5.837A.837.837,0,0,0,5,15.53Zm9.2,5.721a19.572,19.572,0,0,1-5.493-4.884h2.146a.837.837,0,0,0,.592-.245l.776-.776,1.2,3.005a.837.837,0,0,0,1.369.281l2.265-2.265H19.7A19.572,19.572,0,0,1,14.2,21.251ZM7.51,13.02a3.345,3.345,0,0,1,3.337-3.347,3.308,3.308,0,0,1,2.685,1.336.867.867,0,0,0,1.343,0,3.308,3.308,0,0,1,2.685-1.336A3.345,3.345,0,0,1,20.9,13.02a4.879,4.879,0,0,1-.324,1.673h-3.86a.837.837,0,0,0-.592.245L14.51,16.552l-1.2-3.005a.837.837,0,0,0-1.369-.281l-1.428,1.428H7.834A4.879,4.879,0,0,1,7.51,13.02Z" transform="translate(-2.49 -2.98)"/>
        </g>
      </g>
      <g id="_x30_1-2" data-name="_x30_1" transform="translate(112.084 88.942)">
        <g id="Grupo_11200-2" data-name="Grupo 11200" transform="translate(2 2)">
          <path id="Trazado_8733-2" data-name="Trazado 8733" d="M25.851,13.484a.883.883,0,0,0-.883.883,10.6,10.6,0,1,1-1.63-5.65.884.884,0,0,0,1.494-.944,12.369,12.369,0,1,0,1.9,6.594A.883.883,0,0,0,25.851,13.484Z" transform="translate(-2 -2)"/>
          <path id="Trazado_8734-2" data-name="Trazado 8734" d="M5,15.95a.883.883,0,0,0,.883.883h.989c2.157,3.98,7.147,6.806,7.416,6.956a.883.883,0,0,0,.858,0c.269-.149,5.259-2.975,7.416-6.956h.989a.883.883,0,0,0,0-1.767h-.265a6.577,6.577,0,0,0,.265-1.767,5.3,5.3,0,0,0-8.834-3.952A5.3,5.3,0,0,0,5.883,13.3a6.576,6.576,0,0,0,.265,1.767H5.883A.883.883,0,0,0,5,15.95Zm9.717,6.04a20.663,20.663,0,0,1-5.8-5.156h2.266a.883.883,0,0,0,.625-.259l.82-.82L13.9,18.928a.883.883,0,0,0,1.445.3l2.391-2.391h2.784A20.664,20.664,0,0,1,14.717,21.99ZM7.65,13.3a3.532,3.532,0,0,1,3.523-3.533,3.493,3.493,0,0,1,2.835,1.41.916.916,0,0,0,1.418,0,3.493,3.493,0,0,1,2.835-1.41A3.532,3.532,0,0,1,21.784,13.3a5.151,5.151,0,0,1-.342,1.767H17.367a.883.883,0,0,0-.625.259l-1.7,1.7-1.269-3.173a.883.883,0,0,0-1.445-.3l-1.508,1.508H7.992A5.151,5.151,0,0,1,7.65,13.3Z" transform="translate(-2.35 -2.7)"/>
        </g>
      </g>
      <g id="_x30_1-3" data-name="_x30_1" transform="translate(1.625 18.841)">
        <g id="Grupo_11201" data-name="Grupo 11201" transform="translate(2 3)">
          <path id="Trazado_8735" data-name="Trazado 8735" d="M25.547,13.529,20.471,5.915a.846.846,0,0,0-.7-.377h-3.62l-.653-1.96a.846.846,0,0,0-.8-.578H10.46a.846.846,0,0,0-.8.578L9,5.538H2.846A.846.846,0,0,0,2,6.384V20.767a.846.846,0,0,0,.846.846H4.538a3.384,3.384,0,1,0,6.768,0h4.23a3.384,3.384,0,1,0,6.768,0h2.538a.846.846,0,0,0,.846-.846V14A.847.847,0,0,0,25.547,13.529ZM11.07,4.692h3.011l.282.846H10.788ZM7.922,23.3A1.694,1.694,0,0,1,6.23,21.613a1.552,1.552,0,0,1,.107-.573,1.682,1.682,0,0,1,3.182.032,1.491,1.491,0,0,1,.1.54A1.694,1.694,0,0,1,7.922,23.3Zm11,0a1.694,1.694,0,0,1-1.692-1.692,1.552,1.552,0,0,1,.107-.573,1.682,1.682,0,0,1,3.182.032,1.491,1.491,0,0,1,.1.54A1.694,1.694,0,0,1,18.921,23.3Zm2.928-3.384a3.306,3.306,0,0,0-.195-.294c-.015-.021-.028-.045-.044-.066a3.333,3.333,0,0,0-.318-.361c-.033-.032-.069-.06-.1-.091a3.343,3.343,0,0,0-.263-.219c-.047-.035-.1-.066-.145-.1-.086-.056-.173-.11-.263-.158-.055-.029-.11-.056-.166-.083-.092-.043-.186-.081-.282-.116-.057-.021-.114-.042-.173-.06-.106-.032-.214-.056-.323-.077-.052-.01-.1-.024-.155-.031a3.186,3.186,0,0,0-.994,0c-.055.008-.107.022-.161.033-.106.021-.211.044-.314.075-.064.019-.125.042-.187.065-.088.032-.174.066-.258.105-.067.031-.132.063-.2.1s-.141.081-.21.125-.137.088-.2.136-.1.084-.154.127c-.072.061-.145.12-.212.187-.014.014-.026.03-.04.044a3.263,3.263,0,0,0-.437.569c-.019.031-.042.058-.059.09H13.844V17.383a.846.846,0,1,0-1.692,0v2.538h-1.3a3.305,3.305,0,0,0-.195-.294c-.015-.021-.028-.045-.044-.066a3.333,3.333,0,0,0-.318-.361c-.033-.032-.069-.06-.1-.091a3.343,3.343,0,0,0-.263-.219c-.047-.035-.1-.066-.145-.1-.086-.056-.173-.11-.263-.158-.055-.029-.11-.056-.166-.083-.092-.043-.186-.081-.282-.116-.057-.021-.114-.042-.173-.06-.106-.032-.214-.056-.323-.077-.052-.01-.1-.024-.155-.031a3.187,3.187,0,0,0-.994,0c-.055.008-.107.022-.161.033-.106.021-.211.044-.314.075-.064.019-.125.042-.187.065-.088.032-.174.066-.258.105-.067.031-.132.063-.2.1s-.141.081-.21.125-.137.088-.2.136-.1.084-.154.127c-.072.061-.145.12-.212.187-.014.014-.026.03-.04.044a3.263,3.263,0,0,0-.437.569c-.019.031-.042.058-.059.09h-1.3V7.23H19.314L24,14.255v2.028H21.459a.846.846,0,0,0,0,1.692H24v1.946Z" transform="translate(-2 -3)"/>
          <path id="Trazado_8736" data-name="Trazado 8736" d="M22.494,14.641l-2.538-4.23A.846.846,0,0,0,19.23,10H15.846a.846.846,0,0,0-.846.846v4.23a.846.846,0,0,0,.846.846h5.922a.846.846,0,0,0,.725-1.281Zm-5.8-.411V11.692h2.059l1.523,2.538Z" transform="translate(-4.002 -4.078)"/>
          <path id="Trazado_8737" data-name="Trazado 8737" d="M10.23,12.692H9.384v-.846a.846.846,0,0,0-1.692,0v.846H6.846a.846.846,0,1,0,0,1.692h.846v.846a.846.846,0,0,0,1.692,0v-.846h.846a.846.846,0,1,0,0-1.692Z" transform="translate(-2.616 -4.232)"/>
        </g>
      </g>
      <g id="Grupo_11202" data-name="Grupo 11202" transform="translate(38.011 10.221)">
        <path id="Trazado_8739" data-name="Trazado 8739" d="M20.857,10.166a3.712,3.712,0,0,1-2.163,3.374,5.216,5.216,0,0,0-.965-1.224,2.228,2.228,0,0,0-1.172-4.3.742.742,0,0,1-.931-.625A4.455,4.455,0,0,0,7.877,4.978a8.3,8.3,0,0,0-1.895.131A5.942,5.942,0,0,1,16.958,6.46a3.712,3.712,0,0,1,3.9,3.706Z" transform="translate(2.902 0)"/>
        <path id="Trazado_8740" data-name="Trazado 8740" d="M10.4,5a6.682,6.682,0,0,1,6.642,5.941h.04a3.712,3.712,0,0,1,0,7.424H4.456a4.455,4.455,0,0,1-.367-8.894A6.685,6.685,0,0,1,10.4,5Zm5.2,6.682a5.2,5.2,0,0,0-10.231-1.3.742.742,0,0,1-.757.557,2.969,2.969,0,1,0-.148,5.937H17.077a2.227,2.227,0,1,0-.558-4.385.742.742,0,0,1-.927-.731Z" transform="translate(0 1.454)"/>
      </g>
      <g id="Grupo_11203" data-name="Grupo 11203" transform="translate(109.381 126.992)">
        <path id="Trazado_8739-2" data-name="Trazado 8739" d="M20.857,10.166a3.712,3.712,0,0,1-2.163,3.374,5.216,5.216,0,0,0-.965-1.224,2.228,2.228,0,0,0-1.172-4.3.742.742,0,0,1-.931-.625A4.455,4.455,0,0,0,7.877,4.978a8.3,8.3,0,0,0-1.895.131A5.942,5.942,0,0,1,16.958,6.46a3.712,3.712,0,0,1,3.9,3.706Z" transform="translate(2.902 0)"/>
        <path id="Trazado_8740-2" data-name="Trazado 8740" d="M10.4,5a6.682,6.682,0,0,1,6.642,5.941h.04a3.712,3.712,0,0,1,0,7.424H4.456a4.455,4.455,0,0,1-.367-8.894A6.685,6.685,0,0,1,10.4,5Zm5.2,6.682a5.2,5.2,0,0,0-10.231-1.3.742.742,0,0,1-.757.557,2.969,2.969,0,1,0-.148,5.937H17.077a2.227,2.227,0,1,0-.558-4.385.742.742,0,0,1-.927-.731Z" transform="translate(0 1.454)"/>
      </g>
    </g>
  </g>
</svg>
